<svg width="56" height="55" viewBox="0 0 56 55" fill="none" xmlns="http://www.w3.org/2000/svg">
<path d="M39.4583 4.58331H16.5416C10.2133 4.58331 5.08325 9.71338 5.08325 16.0416V38.9583C5.08325 45.2866 10.2133 50.4166 16.5416 50.4166H39.4583C45.7865 50.4166 50.9166 45.2866 50.9166 38.9583V16.0416C50.9166 9.71338 45.7865 4.58331 39.4583 4.58331Z" stroke="white" stroke-width="2" stroke-linecap="round" stroke-linejoin="round"/>
<path d="M37.1666 26.0563C37.4494 27.9635 37.1236 29.9113 36.2356 31.6228C35.3476 33.3342 33.9425 34.722 32.2203 35.5889C30.4981 36.4557 28.5463 36.7574 26.6427 36.4511C24.7391 36.1448 22.9806 35.246 21.6172 33.8827C20.2539 32.5193 19.3551 30.7608 19.0488 28.8572C18.7425 26.9536 19.0442 25.0019 19.9111 23.2796C20.7779 21.5574 22.1657 20.1523 23.8772 19.2643C25.5886 18.3763 27.5364 18.0505 29.4436 18.3334C31.3891 18.6218 33.1902 19.5284 34.5809 20.9191C35.9715 22.3097 36.8781 24.1108 37.1666 26.0563Z" stroke="white" stroke-width="2" stroke-linecap="round" stroke-linejoin="round"/>
<path d="M40.6042 14.8958H40.6272" stroke="white" stroke-width="2" stroke-linecap="round" stroke-linejoin="round"/>
</svg>
