<svg width="56" height="55" viewBox="0 0 56 55" fill="none" xmlns="http://www.w3.org/2000/svg">
<path d="M14.25 4.58333L7.375 13.75V45.8333C7.375 47.0489 7.85789 48.2147 8.71743 49.0742C9.57697 49.9338 10.7428 50.4167 11.9583 50.4167H44.0417C45.2572 50.4167 46.423 49.9338 47.2826 49.0742C48.1421 48.2147 48.625 47.0489 48.625 45.8333V13.75L41.75 4.58333H14.25Z" stroke="white" stroke-width="2" stroke-linecap="round" stroke-linejoin="round"/>
<path d="M7.375 13.75H48.625" stroke="white" stroke-width="2" stroke-linecap="round" stroke-linejoin="round"/>
<path d="M37.1663 22.9167C37.1663 25.3478 36.2006 27.6794 34.4815 29.3985C32.7624 31.1176 30.4308 32.0833 27.9997 32.0833C25.5685 32.0833 23.2369 31.1176 21.5179 29.3985C19.7988 27.6794 18.833 25.3478 18.833 22.9167" stroke="white" stroke-width="2" stroke-linecap="round" stroke-linejoin="round"/>
</svg>
