<svg width="51" height="51" viewBox="0 0 51 51" fill="none" xmlns="http://www.w3.org/2000/svg">
<path d="M6.75 13H10.9167H44.25" stroke="white" stroke-width="2" stroke-linecap="round" stroke-linejoin="round"/>
<path d="M40.0827 13.0001V42.1667C40.0827 43.2718 39.6437 44.3316 38.8623 45.113C38.0809 45.8944 37.0211 46.3334 35.916 46.3334H15.0827C13.9776 46.3334 12.9178 45.8944 12.1364 45.113C11.355 44.3316 10.916 43.2718 10.916 42.1667V13.0001M17.166 13.0001V8.83341C17.166 7.72835 17.605 6.66854 18.3864 5.88714C19.1678 5.10573 20.2276 4.66675 21.3327 4.66675H29.666C30.7711 4.66675 31.8309 5.10573 32.6123 5.88714C33.3937 6.66854 33.8327 7.72835 33.8327 8.83341V13.0001" stroke="white" stroke-width="2" stroke-linecap="round" stroke-linejoin="round"/>
<path d="M21.334 23.4167V35.9167" stroke="white" stroke-width="2" stroke-linecap="round" stroke-linejoin="round"/>
<path d="M29.666 23.4167V35.9167" stroke="white" stroke-width="2" stroke-linecap="round" stroke-linejoin="round"/>
</svg>
